<?xml version="1.0" standalone="no"?>
<!DOCTYPE svg PUBLIC "-//W3C//DTD SVG 20010904//EN"
 "http://www.w3.org/TR/2001/REC-SVG-20010904/DTD/svg10.dtd">
<svg version="1.0" xmlns="http://www.w3.org/2000/svg"
 width="100.000000pt" height="100.000000pt" viewBox="0 0 200.000000 200.000000"
 preserveAspectRatio="xMidYMid meet">

<g transform="translate(0.000000,200.000000) scale(0.100000,-0.100000)"
fill="#000000" stroke="none">
<path d="M757 1374 c-10 -10 -9 -322 1 -327 4 -3 6 69 4 159 l-3 164 241 0
240 0 -2 -162 -3 -163 -230 -5 c-126 -3 -188 -7 -137 -8 l92 -2 0 -30 c0 -22
-6 -33 -22 -40 -16 -6 2 -9 62 -8 47 0 77 2 68 5 -13 3 -18 15 -18 39 l0 34
88 0 c48 0 93 4 100 8 9 7 12 48 10 173 l-3 164 -241 3 c-132 1 -243 -1 -247
-4z m283 -379 c0 -33 -2 -35 -35 -35 -33 0 -35 2 -35 35 0 33 2 35 35 35 33 0
35 -2 35 -35z"/>
<path d="M1015 1258 c-46 -116 -56 -142 -46 -133 12 13 73 166 68 172 -3 2
-12 -15 -22 -39z"/>
<path d="M885 1254 c-16 -9 -41 -23 -54 -31 l-23 -15 52 -30 c28 -16 54 -28
56 -25 2 2 -17 15 -43 30 l-47 25 33 19 c64 35 86 58 26 27z"/>
<path d="M1115 1245 c22 -14 43 -25 48 -25 20 0 2 -20 -37 -41 -25 -13 -43
-25 -41 -27 5 -5 105 49 105 57 0 7 -96 61 -108 61 -4 0 11 -12 33 -25z"/>
<path d="M1294 790 c0 -52 1 -74 3 -47 2 26 2 68 0 95 -2 26 -3 4 -3 -48z"/>
<path d="M1364 786 c1 -80 4 -100 16 -103 11 -3 12 -2 3 4 -8 5 -14 44 -16
103 l-3 95 0 -99z"/>
<path d="M118 765 l3 -85 43 0 c59 0 96 29 96 76 0 20 -4 44 -10 54 -11 21
-60 40 -104 40 l-31 0 3 -85z m115 43 c41 -48 7 -118 -58 -118 l-35 0 0 76 0
76 38 -6 c20 -4 45 -16 55 -28z"/>
<path d="M981 849 c-1 -10 59 -153 68 -162 5 -5 15 7 22 27 15 42 22 44 38 14
8 -16 10 -17 5 -3 -10 26 -10 64 -1 95 5 19 3 18 -7 -5 l-14 -30 -16 35 c-8
19 -15 29 -16 22 0 -7 6 -25 14 -40 12 -23 11 -32 -4 -67 l-18 -40 -21 50
c-29 70 -50 111 -50 104z"/>
<path d="M1167 783 c-15 -37 -26 -68 -24 -70 2 -2 16 26 32 62 15 36 26 67 24
70 -2 2 -17 -26 -32 -62z"/>
<path d="M306 764 c-45 -44 19 -109 73 -75 8 5 14 24 14 41 0 48 -53 69 -87
34z m69 -34 c0 -32 -2 -35 -30 -35 -24 0 -31 5 -33 23 -6 38 5 54 35 50 25 -3
28 -7 28 -38z"/>
<path d="M428 773 c7 -3 13 -24 13 -51 l2 -47 6 39 c11 72 71 78 71 6 0 -31 4
-40 18 -40 11 0 13 3 5 8 -6 4 -13 25 -15 47 l-3 40 -55 1 c-30 1 -49 -1 -42
-3z"/>
<path d="M568 773 c7 -3 12 -22 12 -49 0 -24 5 -44 10 -44 6 0 10 18 10 40 0
43 24 66 41 39 7 -11 9 -11 9 3 0 13 -10 16 -47 15 -27 0 -42 -2 -35 -4z"/>
<path d="M685 770 c-4 -6 -4 -14 -1 -17 3 -4 6 -1 6 5 0 7 14 12 30 12 29 0
30 -2 28 -37 -3 -33 -7 -38 -31 -41 -34 -4 -38 24 -4 38 12 5 15 9 7 9 -25 1
-42 -15 -38 -35 3 -16 13 -19 56 -20 41 -1 49 1 38 10 -8 6 -16 27 -18 46 -3
31 -6 35 -35 38 -17 2 -34 -2 -38 -8z"/>
<path d="M800 775 c0 -3 9 -24 21 -46 17 -35 19 -46 9 -70 -7 -15 -18 -30 -26
-32 -9 -3 -7 -4 3 -3 17 1 62 71 82 129 15 40 4 33 -20 -15 l-22 -43 -18 43
c-16 37 -29 53 -29 37z"/>
<path d="M1222 773 c12 -3 18 -18 21 -51 l3 -47 2 53 c2 48 0 52 -20 51 -17
-1 -18 -3 -6 -6z"/>
<path d="M1417 772 c6 -4 13 -28 16 -52 l4 -45 1 53 c2 44 -1 52 -15 52 -12 0
-14 -3 -6 -8z"/>
<path d="M1490 769 c0 -5 5 -7 10 -4 6 3 10 8 10 11 0 2 -4 4 -10 4 -5 0 -10
-5 -10 -11z"/>
<path d="M1530 776 c0 -2 7 -7 16 -10 8 -3 12 -2 9 4 -6 10 -25 14 -25 6z"/>
<path d="M1608 773 c7 -3 13 -25 13 -51 l2 -47 6 40 c8 49 4 65 -18 64 -10 0
-11 -2 -3 -6z"/>
<path d="M1690 727 l5 -52 3 44 c2 24 0 47 -5 52 -4 4 -6 -15 -3 -44z"/>
<path d="M1764 726 c1 -26 6 -41 16 -43 10 -3 11 -2 3 4 -6 4 -13 24 -16 43
-4 34 -4 33 -3 -4z"/>
<path d="M1484 715 c-7 -17 3 -35 19 -35 8 0 7 3 -2 9 -8 5 -11 16 -8 25 4 9
4 16 1 16 -2 0 -7 -7 -10 -15z"/>
<path d="M1120 690 c0 -5 5 -10 10 -10 6 0 10 5 10 10 0 6 -4 10 -10 10 -5 0
-10 -4 -10 -10z"/>
<path d="M1308 683 c7 -3 16 -2 19 1 4 3 -2 6 -13 5 -11 0 -14 -3 -6 -6z"/>
<path d="M1568 683 c7 -3 16 -2 19 1 4 3 -2 6 -13 5 -11 0 -14 -3 -6 -6z"/>
</g>
</svg>
